<?xml version="1.0" encoding="UTF-8"?>
<!DOCTYPE svg PUBLIC "-//W3C//DTD SVG 1.1//EN" "http://www.w3.org/Graphics/SVG/1.1/DTD/svg11.dtd">
<!-- Creator: CorelDRAW -->
<svg xmlns="http://www.w3.org/2000/svg" xml:space="preserve" width="48px" height="68px" style="shape-rendering:geometricPrecision; text-rendering:geometricPrecision; image-rendering:optimizeQuality; fill-rule:evenodd; clip-rule:evenodd"
viewBox="0 0 48 67.8857">
 <defs>
  <style type="text/css">
   <![CDATA[
    .str0 {stroke:#2A1F74;stroke-width:0.0174171}
    .str2 {stroke:#DA2724;stroke-width:0.0174171}
    .str1 {stroke:#F1E900;stroke-width:0.0174171}
    .fil3 {fill:none;fill-rule:nonzero}
    .fil1 {fill:#1F1A17}
    .fil0 {fill:white}
    .fil2 {fill:#629BC9}
    .fil5 {fill:#DA2B28}
    .fil4 {fill:#F3E22F}
   ]]>
  </style>
 </defs>
 <g id="Layer_x0020_1">
  <metadata id="CorelCorpID_0Corel-Layer"/>
  <polygon class="fil0" points="53.5253,75.771 80.5045,75.771 80.5045,48.7919 53.5253,48.7919 "/>
  <path class="fil1" d="M53.5253 63.968c0,0.85344 0.2032,1.57915 0.656046,2.30487l0 0c0.48768,0.783771 1.05083,1.36434 1.82299,1.88105l0 0c0.743131,0.493486 1.44562,0.8128 2.31067,1.05664l0 0c0.957943,0.261257 1.79977,0.377371 2.79835,0.377371l0 0c0.992777,0 1.83461,-0.116114 2.79255,-0.377371l0 0c0.865051,-0.24384 1.56754,-0.563154 2.31067,-1.05664l0 0c0.77216,-0.516709 1.33531,-1.09728 1.82299,-1.88105l0 0c0.452846,-0.725714 0.661851,-1.45143 0.661851,-2.30487l0 0c0,-0.85344 -0.209006,-1.57915 -0.661851,-2.30487l0 0c-0.48768,-0.789577 -1.05083,-1.36434 -1.82299,-1.88105l0 0c-0.743131,-0.499291 -1.44562,-0.818606 -2.31067,-1.05664l0 0c-0.957943,-0.267063 -1.79977,-0.377371 -2.79255,-0.377371l0 0c-0.998583,0 -1.84041,0.110309 -2.79835,0.377371l0 0c-0.865051,0.238034 -1.56754,0.557349 -2.31067,1.05664l0 0c-0.77216,0.516709 -1.33531,1.09147 -1.82299,1.88105l0 0c-0.452846,0.725714 -0.656046,1.45143 -0.656046,2.30487z"/>
  <path class="fil1" d="M60.7535 65.9884l1.04503 2.54871 0.621211 1.5211 0.801189 1.5211 1.25403 1.38176 0.359954 0.116114c0.32512,1.59077 1.67785,2.69385 3.30345,2.69385l0 0 5.61993 0c1.86363,0 3.37312,-1.50949 3.37312,-3.37312l0 0 0 -3.37312c0,-1.86363 -1.50949,-3.37312 -3.37312,-3.37312l0 0 -5.61993 0c-1.09728,0 -2.032,0.464457 -2.69385,1.34112l0 0 -0.08128 -0.104503 -0.539931 -0.952137 -0.830217 -1.44562 -3.23959 1.49787z"/>
  <path class="fil1" d="M64.2079 65.4775l1.92169 -0.214811 0.97536 -0.0870857 1.19017 -0.0638629 0.04064 0c0.493486,1.36434 1.7243,2.22939 3.17573,2.22939l0 0 5.61993 0c1.86363,0 3.37312,-1.50949 3.37312,-3.37312l0 -3.37312c0,-1.86363 -1.50949,-3.37312 -3.37312,-3.37312l0 0 -5.61993 0c-1.50368,0 -2.76933,0.928914 -3.21637,2.36293l0 0 -0.330926 0.0232229 -1.5269 0.388983 -1.23081 0.539931 -0.986971 0.557349 -1.41659 0.795383 1.40498 3.58793z"/>
  <path class="fil1" d="M63.3893 62.8127l0.760549 -2.91447 0.4064 -1.57335c0.586377,0.400594 1.19017,0.586377 1.89266,0.586377l0 0 5.61993 0c1.86363,0 3.37312,-1.50949 3.37312,-3.37312l0 0 0 -3.37312c0,-1.86363 -1.50949,-3.37312 -3.37312,-3.37312l0 0 -5.61993 0c-1.6256,0 -2.98414,1.1147 -3.30345,2.71127l0 0 -0.841829 0.290286 -1.36434 1.95072 -0.632823 2.18875 -0.307703 2.22359 -0.185783 2.08425 -0.2032 1.78235 3.77952 0.789577z"/>
  <g>
   <path class="fil2" d="M62.1584 60.8329l0.359954 -1.36434 0.429623 -1.64882 0.481874 -1.43982 0.586377 -1.016 0.748937 -0.388983 0 0.563154c0,0.928914 0.754743,1.68366 1.68366,1.68366l0 0 5.61993 0c0.93472,0 1.68946,-0.754743 1.68946,-1.68366l0 -3.37312c0,-0.928914 -0.754743,-1.68366 -1.68946,-1.68366l0 0 -5.61993 0c-0.928914,0 -1.68366,0.754743 -1.68366,1.68366l0 0 0 0.563154 -1.39337 0.481874 -0.888274 1.27145 -0.522514 1.79977 -0.290286 2.06683 -0.179977 2.06103 -0.0290286 0.278674 0.696686 0.145143z"/>
   <path class="fil3 str0" d="M62.1584 60.8329l0.359954 -1.36434 0.429623 -1.64882 0.481874 -1.43982 0.586377 -1.016 0.748937 -0.388983 0 0.563154c0,0.928914 0.754743,1.68366 1.68366,1.68366l0 0 5.61993 0c0.93472,0 1.68946,-0.754743 1.68946,-1.68366l0 -3.37312c0,-0.928914 -0.754743,-1.68366 -1.68946,-1.68366l0 0 -5.61993 0c-0.928914,0 -1.68366,0.754743 -1.68366,1.68366l0 0 0 0.563154 -1.39337 0.481874 -0.888274 1.27145 -0.522514 1.79977 -0.290286 2.06683 -0.179977 2.06103 -0.0290286 0.278674 0.696686 0.145143z"/>
  </g>
  <g>
   <path class="fil4" d="M65.3051 63.6545l0.656046 -0.0696686 1.02761 -0.0928914 1.24823 -0.0638629 1.58496 -0.0232229 0 0.563154c0,0.928914 0.754743,1.68366 1.68946,1.68366l0 0 5.61993 0c0.928914,0 1.68366,-0.754743 1.68366,-1.68366l0 0 0 -3.37312c0,-0.928914 -0.754743,-1.68366 -1.68366,-1.68366l0 0 -5.61993 0c-0.93472,0 -1.68946,0.754743 -1.68946,1.68366l0 0 0 0.563154 -1.58496 0.12192 -1.24823 0.313509 -1.02761 0.452846 -0.917303 0.516709 -0.139337 0.0754743 0.400594 1.016z"/>
   <path class="fil3 str1" d="M65.3051 63.6545l0.656046 -0.0696686 1.02761 -0.0928914 1.24823 -0.0638629 1.58496 -0.0232229 0 0.563154c0,0.928914 0.754743,1.68366 1.68946,1.68366l0 0 5.61993 0c0.928914,0 1.68366,-0.754743 1.68366,-1.68366l0 0 0 -3.37312c0,-0.928914 -0.754743,-1.68366 -1.68366,-1.68366l0 0 -5.61993 0c-0.93472,0 -1.68946,0.754743 -1.68946,1.68366l0 0 0 0.563154 -1.58496 0.12192 -1.24823 0.313509 -1.02761 0.452846 -0.917303 0.516709 -0.139337 0.0754743 0.400594 1.016z"/>
  </g>
  <g>
   <path class="fil5" d="M62.9248 66.8418l0.435429 1.05664 0.592183 1.44562 0.661851 1.25984 0.8128 0.89408 1.02181 0.336731 0 0.563154c0,0.928914 0.754743,1.68366 1.68946,1.68366l0 0 5.61993 0c0.928914,0 1.68366,-0.754743 1.68366,-1.68366l0 0 0 -3.37312c0,-0.928914 -0.754743,-1.68366 -1.68366,-1.68366l0 0 -5.61993 0c-0.93472,0 -1.68946,0.754743 -1.68946,1.68366l0 0 0 0.563154 -1.02181 -0.24384 -0.8128 -0.632823 -0.661851 -0.899886 -0.592183 -1.03342 -0.0638629 -0.104503 -0.371566 0.168366z"/>
   <path class="fil3 str2" d="M62.9248 66.8418l0.435429 1.05664 0.592183 1.44562 0.661851 1.25984 0.8128 0.89408 1.02181 0.336731 0 0.563154c0,0.928914 0.754743,1.68366 1.68946,1.68366l0 0 5.61993 0c0.928914,0 1.68366,-0.754743 1.68366,-1.68366l0 0 0 -3.37312c0,-0.928914 -0.754743,-1.68366 -1.68366,-1.68366l0 0 -5.61993 0c-0.93472,0 -1.68946,0.754743 -1.68946,1.68366l0 0 0 0.563154 -1.02181 -0.24384 -0.8128 -0.632823 -0.661851 -0.899886 -0.592183 -1.03342 -0.0638629 -0.104503 -0.371566 0.168366z"/>
  </g>
  <path class="fil0" d="M55.209 63.968c0,0.522514 0.127726,0.969554 0.400594,1.41079l0 0c0.359954,0.574766 0.766354,0.992777 1.32951,1.37015l0 0c0.586377,0.394789 1.13792,0.644434 1.82299,0.836023l0 0c0.806994,0.220617 1.51529,0.313509 2.35131,0.313509l0 0c0.836023,0 1.53851,-0.0928914 2.34551,-0.313509l0 0c0.685074,-0.191589 1.23662,-0.441234 1.82299,-0.836023l0 0c0.563154,-0.377371 0.969554,-0.795383 1.32951,-1.37015l0 0c0.272869,-0.441234 0.400594,-0.888274 0.400594,-1.41079l0 0c0,-0.522514 -0.127726,-0.969554 -0.400594,-1.41659l0 0c-0.359954,-0.56896 -0.766354,-0.992777 -1.32951,-1.36434l0 0c-0.586377,-0.394789 -1.13792,-0.65024 -1.82299,-0.836023l0 0c-0.806994,-0.220617 -1.50949,-0.319314 -2.34551,-0.319314l0 0c-0.836023,0 -1.54432,0.0986971 -2.35131,0.319314l0 0c-0.685074,0.185783 -1.23662,0.441234 -1.82299,0.836023l0 0c-0.563154,0.371566 -0.969554,0.795383 -1.32951,1.36434l0 0c-0.272869,0.44704 -0.400594,0.89408 -0.400594,1.41659z"/>
 </g>
</svg>
