<?xml version="1.0" encoding="UTF-8" standalone="no"?>
<!-- Creator: CorelDRAW -->
<svg
   xmlns:dc="http://purl.org/dc/elements/1.1/"
   xmlns:cc="http://web.resource.org/cc/"
   xmlns:rdf="http://www.w3.org/1999/02/22-rdf-syntax-ns#"
   xmlns:svg="http://www.w3.org/2000/svg"
   xmlns="http://www.w3.org/2000/svg"
   xmlns:sodipodi="http://inkscape.sourceforge.net/DTD/sodipodi-0.dtd"
   xmlns:inkscape="http://www.inkscape.org/namespaces/inkscape"
   xml:space="preserve"
   width="2480px"
   height="3508px"
   style="shape-rendering:geometricPrecision; text-rendering:geometricPrecision; image-rendering:optimizeQuality; fill-rule:evenodd; clip-rule:evenodd"
   viewBox="0 0 2480 3507.43"
   id="svg1567"
   sodipodi:version="0.32"
   inkscape:version="0.43"
   sodipodi:docname="psycho_icons.svg"
   sodipodi:docbase="C:\Documents and Settings\Piotr.CADPRO\My Documents\Visual Studio 2005\Projects\Psycho\Psycho\Resources"><metadata
   id="metadata1792"><rdf:RDF><cc:Work
       rdf:about=""><dc:format>image/svg+xml</dc:format><dc:type
         rdf:resource="http://purl.org/dc/dcmitype/StillImage" /></cc:Work></rdf:RDF></metadata><sodipodi:namedview
   inkscape:window-height="964"
   inkscape:window-width="1280"
   inkscape:pageshadow="2"
   inkscape:pageopacity="0.0"
   borderopacity="1.0"
   bordercolor="#666666"
   pagecolor="#ffffff"
   id="base"
   fill="#cc0000"
   inkscape:zoom="0.49132392"
   inkscape:cx="722.39325"
   inkscape:cy="2602.0225"
   inkscape:window-x="-4"
   inkscape:window-y="-4"
   inkscape:current-layer="svg1567" />
 <defs
   id="defs1569">
  <style
   type="text/css"
   id="style1571">
   
    .str0 {stroke:#131516;stroke-width:0.899886}
    .str5 {stroke:#16ADAD;stroke-width:0.899886}
    .str1 {stroke:#2A1F74;stroke-width:0.899886}
    .str4 {stroke:#545A5E;stroke-width:0.899886}
    .str3 {stroke:#DA2724;stroke-width:0.899886}
    .str2 {stroke:#F1E900;stroke-width:0.899886}
    .fil0 {fill:none;fill-rule:nonzero}
   
  </style>
 
  <metadata
   id="CorelCorpID_0Corel-Layer" />
  
  
  
  
  
  
  
  
  
  
  
  
  
  
  
  
  
  
  
  
  
  
  
  
  
  
  
  
  
  
  
  
  
  
  
  
  
  
  
  
  
  
  
  
  
  
  
  
  
  
  
  
  
  
 </defs>
 <g
   id="g1779"
   transform="translate(-2332.911,-461.3325)"
   style="fill:#2e3436;stroke:none"
   inkscape:export-filename="/home/piotr/Projects/Psycho/Psycho/Resources/psycho-callout-small.png"
   inkscape:export-xdpi="4.1242309"
   inkscape:export-ydpi="4.1242309">
   <path
   style="fill:#2e3436;fill-rule:nonzero;stroke:none;stroke-width:0.89988601"
   id="path1781"
   d="M 3330.09,2176.11 L 3533.164,2046.826 L 3613.8538,2046.826 C 3649.8492,2046.826 3679.2455,2017.7297 3679.2455,1981.4343 L 3679.2455,1981.4343 L 3679.2455,1892.3456 C 3679.2455,1856.3502 3649.8492,1826.9539 3613.8538,1826.9539 L 3613.8538,1826.9539 L 3429.9768,1826.9539 C 3393.9814,1826.9539 3364.5851,1856.3502 3364.5851,1892.3456 L 3364.5851,1892.3456 L 3364.5851,1981.4343 C 3364.5851,2006.0312 3376.8835,2027.3285 3398.7808,2039.027 L 3398.7808,2039.027 L 3330.0895,2176.11 L 3330.09,2176.11 z "
   class="fil0 str3" />
  </g><g
   id="g1711"
   transform="translate(-1932.477,-481.4318)"
   style="fill:#2e3436;stroke:none"
   inkscape:export-filename="/home/piotr/Projects/Psycho/Psycho/Resources/psycho-delete-smallpng"
   inkscape:export-xdpi="4.1241837"
   inkscape:export-ydpi="4.1241837">
   <path
   style="fill:#2e3436;fill-rule:nonzero;stroke:none;stroke-width:0.89988601"
   id="path1713"
   d="M 2911.94,1497.3 L 2936.8368,1494.6003 L 2949.4352,1493.4005 L 2964.7333,1492.8006 L 2965.3332,1492.8006 C 2971.6324,1510.1984 2987.5304,1521.5969 3006.428,1521.5969 L 3006.428,1521.5969 L 3079.0188,1521.5969 C 3103.3157,1521.5969 3122.8132,1501.7994 3122.8132,1477.8025 L 3122.8132,1477.8025 L 3122.8132,1434.308 C 3122.8132,1410.0111 3103.3157,1390.5136 3079.0188,1390.5136 L 3079.0188,1390.5136 L 3006.428,1390.5136 C 2986.9305,1390.5136 2970.7325,1402.5121 2964.7333,1421.1097 L 2964.7333,1421.1097 L 2960.5339,1421.4096 L 2940.7364,1426.509 L 2924.8384,1433.4081 L 2911.94,1440.6072 L 2893.6423,1451.1059 L 2911.94,1497.3 L 2911.94,1497.3 z "
   class="fil0 str4" />
  </g><g
   id="g1719"
   transform="translate(-1932.477,-481.4318)"
   style="fill:#2e3436;stroke:none"
   inkscape:export-filename="/home/piotr/Projects/Psycho/Psycho/Resources/psycho-delete-smallpng"
   inkscape:export-xdpi="4.1241837"
   inkscape:export-ydpi="4.1241837">
   <path
   style="fill:#2e3436;fill-rule:nonzero;stroke:none;stroke-width:0.89988601"
   id="path1721"
   d="M 3065.52,1477.8 L 3067.0198,1522.1944 L 3069.7195,1572.288 L 3072.7191,1606.7836 L 3076.9186,1627.181 L 3080.5181,1634.68 L 3082.3179,1636.1799 L 3085.6175,1636.7798 C 3092.2166,1619.682 3107.8147,1608.8833 3126.4123,1608.8833 L 3126.4123,1608.8833 L 3199.303,1608.8833 C 3223.3,1608.8833 3242.7975,1628.3808 3242.7975,1652.3778 L 3242.7975,1652.3778 L 3242.7975,1696.1722 C 3242.7975,1720.1692 3223.3,1739.6667 3199.303,1739.6667 L 3199.303,1739.6667 L 3126.4123,1739.6667 C 3107.5147,1739.6667 3091.3168,1728.2681 3085.3175,1710.2704 L 3085.3175,1710.2704 L 3079.6182,1709.9704 L 3055.9212,1705.771 L 3035.2238,1690.7729 L 3023.8252,1665.8761 L 3019.0258,1633.7802 L 3017.8259,1590.8856 L 3018.7258,1532.393 L 3020.2256,1477.7999 L 3065.5198,1477.7999 L 3065.52,1477.8 z "
   class="fil0 str4" />
  </g><g
   id="g1727"
   transform="translate(-1932.477,-481.4318)"
   style="fill:#2e3436;stroke:none"
   inkscape:export-filename="/home/piotr/Projects/Psycho/Psycho/Resources/psycho-delete-smallpng"
   inkscape:export-xdpi="4.1241837"
   inkscape:export-ydpi="4.1241837">
   <path
   style="fill:#2e3436;fill-rule:nonzero;stroke:none;stroke-width:0.89988601"
   id="path1729"
   d="M 3066.12,1477.8 L 3069.4196,1507.4962 L 3072.1192,1520.9945 L 3074.219,1526.0938 L 3074.8189,1526.6938 L 3077.8185,1527.5937 L 3085.3176,1528.4935 C 3091.9167,1510.7957 3107.8147,1499.6972 3126.4124,1499.6972 L 3126.4124,1499.6972 L 3199.3031,1499.6972 C 3223.3001,1499.6972 3242.7976,1519.1947 3242.7976,1543.1917 L 3242.7976,1543.1917 L 3242.7976,1586.9861 C 3242.7976,1610.9831 3223.3001,1630.4806 3199.3031,1630.4806 L 3199.3031,1630.4806 L 3126.4124,1630.4806 C 3107.5148,1630.4806 3091.6168,1619.082 3085.3176,1601.3843 L 3085.3176,1601.3843 L 3080.5182,1601.3843 L 3059.8208,1599.2846 L 3039.7234,1591.4856 L 3025.3252,1574.6877 L 3019.3259,1553.0904 L 3017.8261,1527.8936 L 3019.3259,1477.8 L 3066.12,1477.8 L 3066.12,1477.8 z "
   class="fil0 str4" />
  </g><g
   id="g1735"
   transform="translate(-1932.477,-481.4318)"
   style="fill:#2e3436;stroke:none"
   inkscape:export-filename="/home/piotr/Projects/Psycho/Psycho/Resources/psycho-delete-smallpng"
   inkscape:export-xdpi="4.1241837"
   inkscape:export-ydpi="4.1241837">
   <polygon
   style="fill:#2e3436;fill-rule:nonzero;stroke:none;stroke-width:0.89988601"
   id="polygon1737"
   points="3242.8,1583.39 3224.5,1565.09 3242.8,1546.79 3242.8,1521.59 3193.6,1472.4 3162.71,1503.3 3131.81,1472.4 3070.32,1534.19 3101.22,1565.09 3070.32,1595.98 3131.81,1657.78 3162.71,1626.88 3193.6,1657.78 3242.8,1608.58 3242.8,1583.39 "
   class="fil0 str3" />
  </g><g
   id="g1699"
   transform="translate(-3214.174,-34.6156)"
   style="fill:#cc0000;stroke:none"
   inkscape:export-filename="/home/piotr/Projects/Psycho/Psycho/Resources/psycho-boundary-small.png"
   inkscape:export-xdpi="4.1241841"
   inkscape:export-ydpi="4.1241841">
   <path
   style="fill:#cc0000;fill-rule:nonzero;stroke:none;stroke-width:0.89988601"
   id="path1701"
   d="M 3796.23,1486.8 C 3800.7294,1438.2062 3843.9239,1402.5107 3892.5178,1407.0101 C 3897.6172,1407.61 3901.8166,1408.2099 3906.916,1409.7098 L 3906.916,1409.7098 C 3948.6107,1383.9131 4003.2038,1396.8114 4028.701,1438.5061 C 4029.9008,1440.3058 4030.8007,1442.1056 4032.0006,1444.2053 L 4032.0006,1444.2053 C 4077.8948,1460.7032 4101.8917,1511.3968 4085.3938,1557.2913 C 4085.3938,1557.8913 4085.0938,1558.1912 4085.0938,1558.4912 L 4085.0938,1558.4912 C 4116.8898,1595.9864 4112.0904,1652.0793 4074.5951,1683.8752 C 4072.4954,1685.375 4070.9956,1686.8748 4068.8958,1688.3746 L 4068.8958,1688.3746 C 4042.1992,1729.7693 3987.3062,1741.4679 3945.9118,1715.0712 C 3941.1124,1712.0716 3937.2129,1709.072 3933.0134,1704.8725 L 3933.0134,1704.8725 C 3886.5193,1697.6734 3854.1234,1655.9787 3858.6228,1609.1847 L 3858.6228,1609.1847 C 3808.2292,1593.5867 3779.7328,1540.1935 3795.0309,1489.7997 C 3795.3309,1488.8998 3795.6309,1488 3796.2308,1486.8001 L 3796.23,1486.8 z "
   class="fil0 str3" />
  </g><g
   id="g1619"
   transform="translate(-3656.352,-65.53714)"
   style="fill:#2e3436;stroke:none"
   inkscape:export-filename="/home/piotr/Projects/Psycho/Psycho/Resources/psycho-topic-small.png"
   inkscape:export-xdpi="4.1241841"
   inkscape:export-ydpi="4.1241841">
   <path
   style="fill:#2e3436;fill-rule:nonzero;stroke:none;stroke-width:0.89988601"
   id="path1621"
   d="M 3894.02,1175.44 L 3903.9187,1137.6448 L 3909.318,1117.5474 C 3916.8171,1122.6467 3924.6161,1125.0464 3933.6149,1125.0464 L 3933.6149,1125.0464 L 4006.5056,1125.0464 C 4030.5026,1125.0464 4050.0001,1105.5489 4050.0001,1081.252 L 4050.0001,1081.252 L 4050.0001,1037.7575 C 4050.0001,1013.7605 4030.5026,993.96315 4006.5056,993.96315 L 4006.5056,993.96315 L 3933.6149,993.96315 C 3912.6176,993.96315 3894.9198,1008.3613 3891.0203,1029.0586 L 3891.0203,1029.0586 L 3880.2217,1032.9581 L 3862.5239,1058.1549 L 3854.125,1086.3513 L 3850.2255,1115.1476 L 3847.8258,1142.1442 L 3845.1262,1165.2413 L 3894.02,1175.44 L 3894.02,1175.44 z "
   class="fil0 str4" />
  </g><g
   id="g1627"
   transform="translate(-3656.352,-65.53714)"
   style="fill:#2e3436;stroke:none"
   inkscape:export-filename="/home/piotr/Projects/Psycho/Psycho/Resources/psycho-topic-small.png"
   inkscape:export-xdpi="4.1241841"
   inkscape:export-ydpi="4.1241841">
   <path
   style="fill:#2e3436;fill-rule:nonzero;stroke:none;stroke-width:0.89988601"
   id="path1629"
   d="M 3904.81,1209.93 L 3929.4069,1207.2303 L 3942.3053,1206.0305 L 3957.6034,1205.4306 L 3958.2033,1205.4306 C 3964.5025,1223.1284 3980.4005,1234.2269 3999.2981,1234.2269 L 3999.2981,1234.2269 L 4071.8889,1234.2269 C 4095.8859,1234.2269 4115.6833,1214.7294 4115.6833,1190.4325 L 4115.6833,1190.4325 L 4115.6833,1146.938 C 4115.6833,1122.6411 4095.8858,1103.1436 4071.8889,1103.1436 L 4071.8889,1103.1436 L 3999.2981,1103.1436 C 3979.8006,1103.1436 3963.3027,1115.1421 3957.6034,1133.7397 L 3957.6034,1133.7397 L 3953.404,1134.0396 L 3933.6065,1139.139 L 3917.7085,1146.0381 L 3904.8101,1153.2372 L 3886.5124,1163.7359 L 3904.8101,1209.93 L 3904.81,1209.93 z "
   class="fil0 str4" />
  </g><g
   id="g1635"
   transform="translate(-3656.352,-65.53714)"
   style="fill:#2e3436;stroke:none"
   inkscape:export-filename="/home/piotr/Projects/Psycho/Psycho/Resources/psycho-topic-small.png"
   inkscape:export-xdpi="4.1241841"
   inkscape:export-ydpi="4.1241841">
   <path
   style="fill:#2e3436;fill-rule:nonzero;stroke:none;stroke-width:0.89988601"
   id="path1637"
   d="M 3766.53,1190.44 C 3766.53,1201.5386 3769.2297,1210.8374 3774.9289,1220.4362 L 3774.9289,1220.4362 C 3781.2281,1230.6349 3788.4272,1238.134 3798.6259,1244.7331 L 3798.6259,1244.7331 C 3808.2247,1251.0323 3817.2235,1255.2318 3828.3221,1258.2314 L 3828.3221,1258.2314 C 3840.9205,1261.8309 3851.7191,1263.3308 3864.6175,1263.3308 L 3864.6175,1263.3308 C 3877.5159,1263.3308 3888.3145,1261.8309 3900.9129,1258.2314 L 3900.9129,1258.2314 C 3912.0115,1255.2318 3921.0103,1251.0323 3930.6091,1244.7331 L 3930.6091,1244.7331 C 3940.8078,1238.1339 3948.0069,1230.6349 3954.3061,1220.4362 L 3954.3061,1220.4362 C 3960.0054,1210.8374 3962.7051,1201.5386 3962.7051,1190.44 L 3962.7051,1190.44 C 3962.7051,1179.3414 3960.0054,1170.0426 3954.3061,1160.7438 L 3954.3061,1160.7438 C 3948.0069,1150.5451 3940.8078,1143.046 3930.6091,1136.4469 L 3930.6091,1136.4469 C 3921.0104,1129.8477 3912.0115,1125.6483 3900.9129,1122.6487 L 3900.9129,1122.6487 C 3888.3145,1119.3491 3877.5159,1117.8493 3864.6175,1117.8493 L 3864.6175,1117.8493 C 3851.7191,1117.8493 3840.9205,1119.3491 3828.3221,1122.6487 L 3828.3221,1122.6487 C 3817.2235,1125.6483 3808.2247,1129.8478 3798.6259,1136.4469 L 3798.6259,1136.4469 C 3788.4272,1143.0461 3781.2281,1150.5451 3774.9289,1160.7438 L 3774.9289,1160.7438 C 3769.2297,1170.0426 3766.53,1179.3414 3766.53,1190.44 z "
   class="fil0 str4" />
  </g><g
   id="g1787"
   transform="translate(-2795.188,415.2928)"
   style="fill:#2e3436;stroke:none"
   inkscape:export-filename="/home/piotr/Projects/Psycho/Psycho/Resources/psycho-relation-small.png"
   inkscape:export-xdpi="4.1135802"
   inkscape:export-ydpi="4.1135802">
   <polygon
   style="fill:#2e3436;fill-rule:nonzero;stroke:none;stroke-width:0.89988601"
   id="polygon1789"
   points="3209.8,1151.14 3210.4,1134.34 3205.3,1113.35 3193.6,1094.15 3177.11,1075.55 3154.61,1055.15 3109.32,1015.86 3066.72,1065.35 3108.12,1101.35 3125.81,1117.54 3136.61,1129.24 3137.81,1131.34 3118.31,1125.94 3137.51,1299.62 3243.7,1160.74 3209.8,1151.14 "
   class="fil0 str3" />
  </g><g
   id="g1575"
   transform="translate(-2773.543,-492.2543)"
   style="stroke:none"
   inkscape:export-filename="/home/piotr/Projects/Psycho/Psycho/Resources/psycho-small.png"
   inkscape:export-xdpi="4.1242642"
   inkscape:export-ydpi="4.1242642">
   <polygon
   style="fill:none;fill-rule:nonzero;stroke:none;stroke-width:0.89988601"
   id="polygon1577"
   points="3330.09,1303.22 3679.24,1303.22 3679.24,954.065 3330.09,954.065 3330.09,1303.22 "
   class="fil0 str0" />
  </g><g
   id="g1591"
   transform="translate(-2773.543,-492.2543)"
   style="fill:#2e3436;stroke:none"
   inkscape:export-filename="/home/piotr/Projects/Psycho/Psycho/Resources/psycho-small.png"
   inkscape:export-xdpi="4.1242642"
   inkscape:export-ydpi="4.1242642">
   <path
   style="fill:#2e3436;fill-rule:nonzero;stroke:none;stroke-width:0.89988601"
   id="path1593"
   d="M 3457.87,1135.54 L 3467.4688,1097.7448 L 3472.8681,1077.3474 C 3480.3671,1082.7467 3488.1662,1085.1464 3497.465,1085.1464 L 3497.465,1085.1464 L 3570.0558,1085.1464 C 3594.0528,1085.1464 3613.8502,1065.3489 3613.8502,1041.352 L 3613.8502,1041.352 L 3613.8502,997.55761 C 3613.8502,973.56061 3594.0527,954.06311 3570.0558,954.06311 L 3570.0558,954.06311 L 3497.465,954.06311 C 3476.1677,954.06311 3458.7699,968.46131 3454.5704,989.15861 L 3454.5704,989.15861 L 3443.7718,993.05811 L 3426.074,1018.2549 L 3417.975,1046.4513 L 3413.7755,1075.2476 L 3411.3758,1102.2442 L 3408.9761,1125.3413 L 3457.8699,1135.54 L 3457.87,1135.54 z "
   class="fil0 str4" />
  </g><g
   id="g1595"
   transform="translate(-2773.543,-492.2543)"
   style="fill:#2e3436;stroke:none"
   inkscape:export-filename="/home/piotr/Projects/Psycho/Psycho/Resources/psycho-small.png"
   inkscape:export-xdpi="4.1242642"
   inkscape:export-ydpi="4.1242642">
   <path
   style="fill:#2e3436;fill-rule:nonzero;stroke:none;stroke-width:0.89988601"
   id="path1597"
   d="M 3468.37,1170.04 L 3493.2668,1167.3403 L 3505.8652,1166.1405 L 3521.1633,1165.2406 L 3521.7632,1165.2406 C 3528.0624,1182.9384 3543.9604,1194.0369 3562.858,1194.0369 L 3562.858,1194.0369 L 3635.4488,1194.0369 C 3659.7457,1194.0369 3679.2432,1174.5394 3679.2432,1150.5424 L 3679.2432,1150.5424 L 3679.2432,1106.748 C 3679.2432,1082.751 3659.7457,1063.2535 3635.4488,1063.2535 L 3635.4488,1063.2535 L 3562.858,1063.2535 C 3543.3605,1063.2535 3527.1625,1075.252 3521.1633,1093.8496 L 3521.1633,1093.8496 L 3516.9639,1094.1496 L 3497.1664,1098.949 L 3481.2684,1106.148 L 3468.37,1113.3471 L 3450.0723,1123.5458 L 3468.37,1170.0399 L 3468.37,1170.04 z "
   class="fil0 str4" />
  </g><g
   id="g1599"
   transform="translate(-2773.543,-492.2543)"
   style="fill:#2e3436;stroke:none"
   inkscape:export-filename="/home/piotr/Projects/Psycho/Psycho/Resources/psycho-small.png"
   inkscape:export-xdpi="4.1242642"
   inkscape:export-ydpi="4.1242642">
   <path
   style="fill:#2e3436;fill-rule:nonzero;stroke:none;stroke-width:0.89988601"
   id="path1601"
   d="M 3423.68,1176.64 L 3437.1783,1209.6358 L 3445.2773,1229.4333 L 3455.476,1248.9308 L 3471.6739,1266.9285 L 3476.4733,1268.4283 C 3480.6727,1288.8257 3498.0706,1303.2239 3519.0679,1303.2239 L 3519.0679,1303.2239 L 3591.9586,1303.2239 C 3615.9556,1303.2239 3635.4531,1283.7264 3635.4531,1259.7294 L 3635.4531,1259.7294 L 3635.4531,1215.935 C 3635.4531,1191.938 3615.9556,1172.4405 3591.9586,1172.4405 L 3591.9586,1172.4405 L 3519.0679,1172.4405 C 3504.9697,1172.4405 3492.9712,1178.4397 3484.2723,1189.5383 L 3484.2723,1189.5383 L 3483.3724,1188.3385 L 3476.1733,1176.0401 L 3465.6746,1157.1425 L 3423.6799,1176.64 L 3423.68,1176.64 z "
   class="fil0 str4" />
  </g><g
   id="g1607"
   transform="translate(-2773.543,-492.2543)"
   style="fill:#2e3436;stroke:none"
   inkscape:export-filename="/home/piotr/Projects/Psycho/Psycho/Resources/psycho-small.png"
   inkscape:export-xdpi="4.1242642"
   inkscape:export-ydpi="4.1242642">
   <path
   style="fill:#2e3436;fill-rule:nonzero;stroke:none;stroke-width:0.89988601"
   id="path1609"
   d="M 3330.09,1150.54 C 3330.09,1161.6386 3332.7897,1170.9374 3338.4889,1180.2362 L 3338.4889,1180.2362 C 3344.7881,1190.4349 3352.2871,1197.934 3362.1859,1204.5331 L 3362.1859,1204.5331 C 3371.7847,1211.1323 3380.7835,1215.3317 3392.1821,1218.3313 L 3392.1821,1218.3313 C 3404.4805,1221.6309 3415.2792,1223.1307 3428.1775,1223.1307 L 3428.1775,1223.1307 C 3441.0759,1223.1307 3452.1745,1221.6309 3464.4729,1218.3313 L 3464.4729,1218.3313 C 3475.5715,1215.3317 3484.5703,1211.1322 3494.4691,1204.5331 L 3494.4691,1204.5331 C 3504.3679,1197.9339 3511.5669,1190.4349 3517.8661,1180.2362 L 3517.8661,1180.2362 C 3523.8654,1170.9374 3526.565,1161.6386 3526.565,1150.54 L 3526.565,1150.54 C 3526.565,1139.4414 3523.8654,1130.1426 3517.8661,1120.5438 L 3517.8661,1120.5438 C 3511.5669,1110.3451 3504.3678,1102.846 3494.4691,1096.2469 L 3494.4691,1096.2469 C 3484.5704,1089.9477 3475.5715,1085.7482 3464.4729,1082.7486 L 3464.4729,1082.7486 C 3452.1745,1079.1491 3441.0759,1077.6492 3428.1775,1077.6492 L 3428.1775,1077.6492 C 3415.2791,1077.6492 3404.4805,1079.1491 3392.1821,1082.7486 L 3392.1821,1082.7486 C 3380.7835,1085.7482 3371.7847,1089.9477 3362.1859,1096.2469 L 3362.1859,1096.2469 C 3352.2872,1102.8461 3344.7881,1110.3451 3338.4889,1120.5438 L 3338.4889,1120.5438 C 3332.7897,1130.1426 3330.09,1139.4414 3330.09,1150.54 z "
   class="fil0 str4" />
  </g><g
   id="g1579"
   transform="translate(-2773.543,-492.2543)"
   style="fill:#3465a4;stroke:none"
   inkscape:export-filename="/home/piotr/Projects/Psycho/Psycho/Resources/psycho-small.png"
   inkscape:export-xdpi="4.1242642"
   inkscape:export-ydpi="4.1242642">
   <path
   style="fill:#3465a4;fill-rule:nonzero;stroke:none;stroke-width:0.89988601"
   id="path1581"
   d="M 3467.6828,1111.0995 L 3454.3407,1087.6294 L 3455.0172,1067.9064 L 3458.1679,1052.1573 L 3463.3431,1032.1372 L 3474.5162,1025.7636 L 3475.5657,1041.3587 C 3475.5657,1053.3572 3485.1645,1063.2559 3497.4629,1063.2559 L 3497.4629,1063.2559 L 3570.0537,1063.2559 C 3582.0522,1063.2559 3591.9509,1053.3572 3591.9509,1041.3587 L 3591.9509,1041.3587 L 3591.9509,997.5643 C 3591.9509,985.5658 3582.0522,975.967 3570.0537,975.967 L 3570.0537,975.967 L 3497.4629,975.967 C 3485.1645,975.967 3475.5657,985.56578 3475.5657,997.5643 L 3475.5657,997.5643 L 3474.5162,1012.9347 L 3457.0432,1019.7586 L 3447.4438,1031.5338 L 3439.2704,1050.9576 L 3429.3738,1078.7037 L 3396.5386,1108.5488 L 3401.7109,1120.0196 L 3441.97,1110.05 L 3467.6828,1111.0995 z "
   class="fil0 str1"
   sodipodi:nodetypes="ccccccccccccccccccccccccccc" />
  </g><g
   id="g1583"
   transform="translate(-2773.543,-492.2543)"
   style="fill:#edd400;stroke:none"
   inkscape:export-filename="/home/piotr/Projects/Psycho/Psycho/Resources/psycho-small.png"
   inkscape:export-xdpi="4.1242642"
   inkscape:export-ydpi="4.1242642">
   <path
   style="fill:#edd400;fill-rule:nonzero;stroke:none;stroke-width:0.89988601"
   id="path1585"
   d="M 3482.47,1146.34 L 3490.8689,1145.4401 L 3492.2979,1177.8243 L 3523.1889,1141.5413 L 3541.4873,1133.8949 L 3540.9625,1145.292 C 3540.9625,1157.2905 3550.8613,1172.4367 3562.8597,1172.4367 L 3562.8597,1172.4367 L 3635.4505,1172.4367 C 3647.449,1172.4367 3657.3477,1162.5379 3657.3477,1150.5395 L 3657.3477,1150.5395 L 3657.3477,1106.7451 C 3657.3477,1094.7466 3647.449,1085.1478 3635.4505,1085.1478 L 3635.4505,1085.1478 L 3562.8597,1085.1478 C 3550.8612,1085.1478 3540.9625,1094.7465 3540.9625,1106.7451 L 3540.9625,1106.7451 L 3540.9625,1124.7391 L 3523.1889,1125.1894 L 3504.3672,1119.6434 L 3467.7799,1107.2764 L 3479.1704,1132.2418 L 3477.3707,1133.4417 L 3482.47,1146.3401 L 3482.47,1146.34 z "
   class="fil0 str2"
   sodipodi:nodetypes="ccccccccccccccccccccccccc" />
  </g><g
   id="g1587"
   transform="translate(-2773.543,-492.2543)"
   style="fill:#cc0000;stroke:none"
   inkscape:export-filename="/home/piotr/Projects/Psycho/Psycho/Resources/psycho-small.png"
   inkscape:export-xdpi="4.1242642"
   inkscape:export-ydpi="4.1242642">
   <path
   style="fill:#cc0000;fill-rule:nonzero;stroke:none;stroke-width:0.89988601"
   id="path1589"
   d="M 3408.3157,1199.2845 L 3438.903,1209.9342 L 3453.5237,1217.512 L 3468.2197,1233.1852 L 3480.8174,1241.2104 L 3496.9394,1248.5584 L 3497.4642,1259.7307 C 3497.4642,1271.7292 3507.063,1281.328 3519.0615,1281.328 L 3519.0615,1281.328 L 3591.9522,1281.328 C 3603.9507,1281.328 3613.8494,1271.7292 3613.8494,1259.7307 L 3613.8494,1259.7307 L 3613.8494,1215.9363 C 3613.8494,1203.9378 3603.9507,1194.0391 3591.9522,1194.0391 L 3591.9522,1194.0391 L 3519.0615,1194.0391 C 3507.063,1194.0391 3497.4642,1203.9379 3497.4642,1215.9363 L 3497.4642,1215.9363 L 3497.989,1239.9274 L 3486.5897,1230.1061 L 3480.289,1214.3607 L 3483.9593,1192.9918 L 3498.7246,1171.0975 L 3483.9564,1174.8451 L 3421.9592,1198.7596 L 3408.3157,1199.2845 z "
   class="fil0 str3"
   sodipodi:nodetypes="cccccccccccccccccccccccccc" />
  </g><g
   id="g1603"
   transform="translate(-2773.543,-492.2543)"
   style="fill:#eeeeec;stroke:none"
   inkscape:export-filename="/home/piotr/Projects/Psycho/Psycho/Resources/psycho-small.png"
   inkscape:export-xdpi="4.1242642"
   inkscape:export-ydpi="4.1242642">
   <path
   style="fill:#eeeeec;fill-rule:nonzero;stroke:none;stroke-width:0.89988601"
   id="path1605"
   d="M 3351.98,1150.54 C 3351.98,1157.1392 3353.4798,1163.1384 3357.0793,1168.8377 L 3357.0793,1168.8377 C 3361.8787,1176.3367 3366.9781,1181.7361 3374.1771,1186.5355 L 3374.1771,1186.5355 C 3381.9762,1191.6348 3389.1752,1194.9344 3397.8742,1197.3341 L 3397.8742,1197.3341 C 3408.3729,1200.0338 3417.3717,1201.5336 3428.1704,1201.5336 L 3428.1704,1201.5336 C 3438.969,1201.5336 3448.2678,1200.0338 3458.7665,1197.3341 L 3458.7665,1197.3341 C 3467.4654,1194.9344 3474.6645,1191.6348 3482.1635,1186.5355 L 3482.1635,1186.5355 C 3489.6625,1181.7361 3494.7619,1176.3368 3499.2613,1168.8377 L 3499.2613,1168.8377 C 3502.8608,1163.1384 3504.6606,1157.1392 3504.6606,1150.54 L 3504.6606,1150.54 C 3504.6606,1143.6409 3502.8608,1137.9416 3499.2613,1132.2423 L 3499.2613,1132.2423 C 3494.7618,1124.7432 3489.6625,1119.3439 3482.1635,1114.5445 L 3482.1635,1114.5445 C 3474.6644,1109.4452 3467.4654,1106.1456 3458.7665,1103.7459 L 3458.7665,1103.7459 C 3448.2678,1100.7463 3438.969,1099.5464 3428.1704,1099.5464 L 3428.1704,1099.5464 C 3417.3718,1099.5464 3408.3729,1100.7463 3397.8742,1103.7459 L 3397.8742,1103.7459 C 3389.1753,1106.1456 3381.9762,1109.4452 3374.1772,1114.5445 L 3374.1772,1114.5445 C 3366.9781,1119.3439 3361.8788,1124.7432 3357.0794,1132.2423 L 3357.0794,1132.2423 C 3353.4798,1137.9416 3351.98,1143.6409 3351.98,1150.54 L 3351.98,1150.54 z "
   class="fil0 str0" />
  </g><g
   id="g1611"
   transform="translate(-2802.918,-861.7667)"
   style="stroke:none"
   inkscape:export-filename="/home/piotr/Projects/Psycho/Psycho/Resources/psycho-topic-small.png"
   inkscape:export-xdpi="4.1241841"
   inkscape:export-ydpi="4.1241841">
   <polygon
   style="fill:none;fill-rule:nonzero;stroke:none;stroke-width:0.89988601"
   id="polygon1613"
   points="3766.53,1303.22 4115.69,1303.22 4115.69,954.065 3766.53,954.065 3766.53,1303.22 "
   class="fil0 str0" />
  </g><g
   id="g1615"
   transform="translate(-3656.352,-65.53714)"
   style="fill:#729fcf;stroke:none"
   inkscape:export-filename="/home/piotr/Projects/Psycho/Psycho/Resources/psycho-topic-small.png"
   inkscape:export-xdpi="4.1241841"
   inkscape:export-ydpi="4.1241841">
   <path
   style="fill:#729fcf;fill-rule:nonzero;stroke:none;stroke-width:0.89988601"
   id="path1617"
   d="M 3878.12,1149.94 L 3882.9194,1132.2422 L 3888.3187,1110.9449 L 3894.6179,1092.3473 L 3902.1169,1079.149 L 3912.0157,1074.0497 L 3912.0157,1081.2487 C 3912.0157,1093.5471 3921.6145,1103.1459 3933.613,1103.1459 L 3933.613,1103.1459 L 4006.5037,1103.1459 C 4018.5022,1103.1459 4028.4009,1093.5472 4028.4009,1081.2487 L 4028.4009,1081.2487 L 4028.4009,1037.7542 C 4028.4009,1025.7557 4018.5021,1015.857 4006.5037,1015.857 L 4006.5037,1015.857 L 3933.613,1015.857 C 3921.6145,1015.857 3912.0157,1025.7558 3912.0157,1037.7542 L 3912.0157,1037.7542 L 3912.0157,1044.9533 L 3894.018,1051.2525 L 3882.3195,1067.7504 L 3875.7203,1091.1474 L 3871.8208,1117.844 L 3869.7211,1144.5406 L 3869.1212,1148.1402 L 3878.12,1149.9399 L 3878.12,1149.94 z "
   class="fil0 str5" />
  </g><g
   id="g1623"
   transform="translate(-3656.352,-65.53714)"
   style="fill:#cc0000;stroke:none"
   inkscape:export-filename="/home/piotr/Projects/Psycho/Psycho/Resources/psycho-topic-small.png"
   inkscape:export-xdpi="4.1241841"
   inkscape:export-ydpi="4.1241841">
   <path
   style="fill:#cc0000;fill-rule:nonzero;stroke:none;stroke-width:0.89988601"
   id="path1625"
   d="M 3918.91,1186.54 L 3927.3089,1185.6401 L 3940.5072,1184.4403 L 3956.7051,1183.5404 L 3977.4025,1183.2404 L 3977.4025,1190.4395 C 3977.4025,1202.438 3987.0013,1212.3367 3999.2997,1212.3367 L 3999.2997,1212.3367 L 4071.8905,1212.3367 C 4083.889,1212.3367 4093.7877,1202.438 4093.7877,1190.4395 L 4093.7877,1190.4395 L 4093.7877,1146.945 C 4093.7877,1134.6466 4083.889,1125.0478 4071.8905,1125.0478 L 4071.8905,1125.0478 L 3999.2997,1125.0478 C 3987.0013,1125.0478 3977.4025,1134.6466 3977.4025,1146.945 L 3977.4025,1146.945 L 3977.4025,1154.1441 L 3956.7051,1155.6439 L 3940.5072,1159.8434 L 3927.3089,1165.5427 L 3915.6104,1172.4418 L 3913.8107,1173.3417 L 3918.91,1186.54 L 3918.91,1186.54 z "
   class="fil0 str3" />
  </g><g
   id="g1631"
   transform="translate(-3656.352,-65.53714)"
   style="fill:#3465a4;stroke:none"
   inkscape:export-filename="/home/piotr/Projects/Psycho/Psycho/Resources/psycho-topic-small.png"
   inkscape:export-xdpi="4.1241841"
   inkscape:export-ydpi="4.1241841">
   <path
   style="fill:#3465a4;fill-rule:nonzero;stroke:none;stroke-width:0.89988601"
   id="path1633"
   d="M 3788.13,1190.44 C 3788.13,1197.3391 3789.9298,1203.0384 3793.5293,1208.7377 L 3793.5293,1208.7377 C 3798.0287,1216.2368 3803.428,1221.6361 3810.6271,1226.4355 L 3810.6271,1226.4355 C 3818.1262,1231.5349 3825.3252,1234.8344 3834.3241,1237.2341 L 3834.3241,1237.2341 C 3844.5228,1240.2337 3853.8216,1241.4336 3864.6203,1241.4336 L 3864.6203,1241.4336 C 3875.4189,1241.4336 3884.7177,1240.2337 3894.9165,1237.2341 L 3894.9165,1237.2341 C 3903.9154,1234.8344 3911.1144,1231.5348 3918.6135,1226.4355 L 3918.6135,1226.4355 C 3925.8126,1221.6361 3931.2119,1216.2368 3935.7113,1208.7377 L 3935.7113,1208.7377 C 3939.3109,1203.0384 3941.1106,1197.3391 3941.1106,1190.44 L 3941.1106,1190.44 C 3941.1106,1183.8408 3939.3108,1177.8416 3935.7113,1172.1423 L 3935.7113,1172.1423 C 3931.2119,1164.6433 3925.8126,1159.2439 3918.6135,1154.4445 L 3918.6135,1154.4445 C 3911.1145,1149.3452 3903.9154,1146.0456 3894.9165,1143.6459 L 3894.9165,1143.6459 C 3884.7178,1140.9462 3875.419,1139.4464 3864.6203,1139.4464 L 3864.6203,1139.4464 C 3853.8217,1139.4464 3844.5229,1140.9462 3834.3241,1143.6459 L 3834.3241,1143.6459 C 3825.3253,1146.0456 3818.1262,1149.3452 3810.6271,1154.4445 L 3810.6271,1154.4445 C 3803.428,1159.2439 3798.0287,1164.6432 3793.5293,1172.1423 L 3793.5293,1172.1423 C 3789.9298,1177.8416 3788.13,1183.8408 3788.13,1190.44 L 3788.13,1190.44 z "
   class="fil0 str1" />
  </g><g
   id="g1639"
   transform="translate(-2789.003,-476.7936)"
   style="stroke:none"
   inkscape:export-filename="/home/piotr/Projects/Psycho/Psycho/Resources/psycho-subtopic-small.png"
   inkscape:export-xdpi="4.1241212"
   inkscape:export-ydpi="4.1241212">
   <polygon
   style="fill:none;fill-rule:nonzero;stroke:none;stroke-width:0.89988601"
   id="polygon1641"
   points="3330.09,1739.67 3679.24,1739.67 3679.24,1390.51 3330.09,1390.51 3330.09,1739.67 "
   class="fil0 str0" />
  </g><g
   id="g1647"
   transform="translate(-2789.003,-476.7936)"
   style="fill:#2e3436;stroke:none"
   inkscape:export-filename="/home/piotr/Projects/Psycho/Psycho/Resources/psycho-subtopic-small.png"
   inkscape:export-xdpi="4.1241212"
   inkscape:export-ydpi="4.1241212">
   <path
   style="fill:#2e3436;fill-rule:nonzero;stroke:none;stroke-width:0.89988601"
   id="path1649"
   d="M 3348.38,1497.3 L 3373.2768,1494.6003 L 3385.8752,1493.4005 L 3401.1733,1492.8006 L 3401.7732,1492.8006 C 3408.0724,1510.1984 3423.9704,1521.5969 3442.868,1521.5969 L 3442.868,1521.5969 L 3515.4588,1521.5969 C 3539.4558,1521.5969 3559.2532,1501.7994 3559.2532,1477.8025 L 3559.2532,1477.8025 L 3559.2532,1434.308 C 3559.2532,1410.0111 3539.4557,1390.5136 3515.4588,1390.5136 L 3515.4588,1390.5136 L 3442.868,1390.5136 C 3423.3705,1390.5136 3406.8726,1402.5121 3401.1733,1421.1097 L 3401.1733,1421.1097 L 3396.9739,1421.4096 L 3377.1764,1426.509 L 3361.2784,1433.4081 L 3348.38,1440.6072 L 3330.0823,1451.1059 L 3348.38,1497.3 L 3348.38,1497.3 z "
   class="fil0 str4" />
  </g><g
   id="g1659"
   transform="translate(-2789.003,-476.7936)"
   style="fill:#2e3436;stroke:none"
   inkscape:export-filename="/home/piotr/Projects/Psycho/Psycho/Resources/psycho-subtopic-small.png"
   inkscape:export-xdpi="4.1241212"
   inkscape:export-ydpi="4.1241212">
   <path
   style="fill:#2e3436;fill-rule:nonzero;stroke:none;stroke-width:0.89988601"
   id="path1661"
   d="M 3502.57,1477.8 L 3505.8696,1507.4962 L 3508.5692,1520.9945 L 3510.669,1526.0938 L 3510.9689,1526.6938 L 3513.9686,1527.5937 L 3521.7676,1528.4935 C 3528.3667,1510.7957 3543.9648,1499.6972 3562.8624,1499.6972 L 3562.8624,1499.6972 L 3635.4532,1499.6972 C 3659.7501,1499.6972 3679.2476,1519.1947 3679.2476,1543.1917 L 3679.2476,1543.1917 L 3679.2476,1586.9861 C 3679.2476,1610.9831 3659.7501,1630.4806 3635.4532,1630.4806 L 3635.4532,1630.4806 L 3562.8624,1630.4806 C 3543.9648,1630.4806 3527.7669,1619.082 3521.4677,1601.3843 L 3521.4677,1601.3843 L 3516.9682,1601.3843 L 3495.9709,1599.2846 L 3476.1734,1591.4856 L 3461.7752,1574.6877 L 3455.776,1553.0904 L 3454.2762,1527.8936 L 3455.476,1477.8 L 3502.57,1477.8 L 3502.57,1477.8 z "
   class="fil0 str4" />
  </g><g
   id="g1663"
   transform="translate(-2789.003,-476.7936)"
   style="fill:#2e3436;stroke:none"
   inkscape:export-filename="/home/piotr/Projects/Psycho/Psycho/Resources/psycho-subtopic-small.png"
   inkscape:export-xdpi="4.1241212"
   inkscape:export-ydpi="4.1241212">
   <path
   style="fill:#2e3436;fill-rule:nonzero;stroke:none;stroke-width:0.89988601"
   id="path1665"
   d="M 3501.67,1477.8 L 3503.4698,1522.1944 L 3505.8695,1572.288 L 3509.169,1606.7836 L 3513.0685,1627.181 L 3516.6681,1634.68 L 3518.4679,1636.1799 L 3522.0674,1636.7798 C 3528.6666,1619.682 3544.2646,1608.8833 3562.8622,1608.8833 L 3562.8622,1608.8833 L 3635.453,1608.8833 C 3659.7499,1608.8833 3679.2474,1628.3808 3679.2474,1652.3778 L 3679.2474,1652.3778 L 3679.2474,1696.1722 C 3679.2474,1720.1692 3659.7499,1739.6667 3635.453,1739.6667 L 3635.453,1739.6667 L 3562.8622,1739.6667 C 3543.6646,1739.6667 3527.7667,1728.2681 3521.4675,1710.2704 L 3521.4675,1710.2704 L 3516.0682,1709.9704 L 3492.3712,1705.771 L 3471.6738,1690.7729 L 3460.2752,1665.8761 L 3455.4758,1633.7802 L 3454.276,1590.8856 L 3455.1758,1532.393 L 3456.6756,1477.7999 L 3501.6699,1477.7999 L 3501.67,1477.8 z "
   class="fil0 str4" />
  </g><g
   id="g1667"
   transform="translate(-2802.918,-861.7667)"
   style="stroke:none"
   inkscape:export-filename="/home/piotr/Projects/Psycho/Psycho/Resources/psycho-boundary-small.png"
   inkscape:export-xdpi="4.1241841"
   inkscape:export-ydpi="4.1241841">
   <polygon
   style="fill:none;fill-rule:nonzero;stroke:none;stroke-width:0.89988601"
   id="polygon1669"
   points="3766.53,1739.67 4115.69,1739.67 4115.69,1390.51 3766.53,1390.51 3766.53,1739.67 "
   class="fil0 str0" />
  </g><g
   id="g1695"
   transform="translate(-3214.174,-34.6156)"
   style="fill:#eeeeec;stroke:none"
   inkscape:export-filename="/home/piotr/Projects/Psycho/Psycho/Resources/psycho-boundary-small.png"
   inkscape:export-xdpi="4.1241841"
   inkscape:export-ydpi="4.1241841">
   <path
   style="fill:#eeeeec;fill-rule:nonzero;stroke:none;stroke-width:0.89988601"
   id="path1697"
   d="M 3817.53,1491.6 C 3819.6297,1454.7047 3851.1257,1426.5083 3887.7211,1428.608 C 3896.12,1428.908 3903.0192,1430.7077 3910.5182,1434.0073 L 3910.5182,1434.0073 C 3938.7146,1410.0103 3980.7093,1413.9099 4004.7062,1442.1063 C 4009.8056,1448.4055 4013.4051,1454.4047 4016.1048,1462.2037 L 4016.1048,1462.2037 C 4052.1002,1470.0027 4075.1973,1505.6982 4067.3983,1541.6936 C 4065.5985,1549.4926 4062.8989,1556.0918 4058.3994,1562.9909 L 4058.3994,1562.9909 C 4087.7957,1585.788 4092.895,1628.0826 4070.0979,1657.1789 C 4064.9986,1663.778 4059.5992,1668.5775 4052.7001,1672.7769 L 4052.7001,1672.7769 C 4034.7024,1705.1728 3993.6076,1716.8713 3961.2117,1698.8736 C 3954.0127,1694.9741 3948.6133,1690.4747 3943.214,1684.1755 L 3943.214,1684.1755 C 3906.3187,1682.3757 3878.1223,1650.8797 3879.922,1613.9844 C 3880.522,1605.8854 3882.0218,1598.9863 3885.3214,1591.4873 L 3885.3214,1591.4873 C 3844.5266,1590.8874 3812.1307,1557.2916 3812.7306,1516.4968 C 3813.0305,1507.4979 3814.5303,1499.9989 3817.5299,1491.6 L 3817.53,1491.6 z "
   class="fil0 str0" />
  </g><g
   id="g1675"
   transform="translate(-3214.174,-34.6156)"
   style="fill:#2e3436;stroke:none"
   inkscape:export-filename="/home/piotr/Projects/Psycho/Psycho/Resources/psycho-boundary-small.png"
   inkscape:export-xdpi="4.1241841"
   inkscape:export-ydpi="4.1241841">
   <path
   style="fill:#2e3436;fill-rule:nonzero;stroke:none;stroke-width:0.89988601"
   id="path1677"
   d="M 3840.92,1521.89 L 3856.818,1520.0902 L 3864.917,1519.1903 L 3874.8157,1518.8904 L 3875.1157,1518.8904 C 3879.3151,1529.989 3889.5139,1537.1881 3901.5123,1537.1881 L 3901.5123,1537.1881 L 3948.0064,1537.1881 C 3963.3045,1537.1881 3975.9029,1524.5897 3975.9029,1509.2916 L 3975.9029,1509.2916 L 3975.9029,1481.3951 C 3975.9029,1465.7971 3963.3045,1453.4986 3948.0064,1453.4986 L 3948.0064,1453.4986 L 3901.5123,1453.4986 C 3888.9139,1453.4986 3878.4152,1460.9976 3874.8157,1472.9961 L 3874.8157,1472.9961 L 3872.116,1472.9961 L 3859.5176,1476.2957 L 3849.3189,1480.7951 L 3840.92,1485.2945 L 3829.2215,1492.1936 L 3840.92,1521.8898 L 3840.92,1521.89 z "
   class="fil0 str4" />
  </g><g
   id="g1683"
   transform="translate(-3214.174,-34.6156)"
   style="fill:#2e3436;stroke:none"
   inkscape:export-filename="/home/piotr/Projects/Psycho/Psycho/Resources/psycho-boundary-small.png"
   inkscape:export-xdpi="4.1241841"
   inkscape:export-ydpi="4.1241841">
   <path
   style="fill:#2e3436;fill-rule:nonzero;stroke:none;stroke-width:0.89988601"
   id="path1685"
   d="M 3939.31,1509.29 L 3940.2099,1537.7864 L 3941.7097,1569.5824 L 3943.8094,1591.7796 L 3946.5091,1604.9779 L 3948.6088,1609.7773 L 3949.8087,1610.6772 L 3952.2084,1610.9771 C 3956.4078,1599.8785 3966.3066,1592.9794 3978.3051,1592.9794 L 3978.3051,1592.9794 L 4024.7992,1592.9794 C 4040.0973,1592.9794 4052.6957,1605.5778 4052.6957,1620.8759 L 4052.6957,1620.8759 L 4052.6957,1648.7724 C 4052.6957,1664.3704 4040.0973,1676.9688 4024.7992,1676.9688 L 4024.7992,1676.9688 L 3978.3051,1676.9688 C 3966.0067,1676.9688 3955.808,1669.4698 3951.9085,1658.0712 L 3951.9085,1658.0712 L 3948.3089,1657.7713 L 3933.0108,1655.0716 L 3919.8125,1645.4728 L 3912.6134,1629.5748 L 3909.6138,1609.1774 L 3908.7139,1581.5809 L 3909.3139,1544.0857 L 3910.2137,1509.2901 L 3939.31,1509.2901 L 3939.31,1509.29 z "
   class="fil0 str4" />
  </g><g
   id="g1691"
   transform="translate(-3214.174,-34.6156)"
   style="fill:#2e3436;stroke:none"
   inkscape:export-filename="/home/piotr/Projects/Psycho/Psycho/Resources/psycho-boundary-small.png"
   inkscape:export-xdpi="4.1241841"
   inkscape:export-ydpi="4.1241841">
   <path
   style="fill:#2e3436;fill-rule:nonzero;stroke:none;stroke-width:0.89988601"
   id="path1693"
   d="M 3939.61,1509.29 L 3941.7097,1528.1876 L 3943.5095,1536.8865 L 3944.7094,1540.1861 L 3945.0093,1540.486 L 3947.109,1541.086 L 3951.9084,1541.6859 C 3956.1079,1530.2873 3966.3066,1523.0883 3978.305,1523.0883 L 3978.305,1523.0883 L 4024.7991,1523.0883 C 4040.0972,1523.0883 4052.6956,1535.6867 4052.6956,1551.2847 L 4052.6956,1551.2847 L 4052.6956,1579.1812 C 4052.6956,1594.4793 4040.0972,1607.0777 4024.7991,1607.0777 L 4024.7991,1607.0777 L 3978.305,1607.0777 C 3966.0066,1607.0777 3955.8079,1599.5786 3951.9084,1588.1801 L 3951.9084,1588.1801 L 3948.9088,1588.1801 L 3935.4105,1586.9802 L 3922.8121,1582.1809 L 3913.5133,1571.3823 L 3909.6138,1557.2841 L 3908.7139,1541.3861 L 3909.6138,1509.2902 L 3939.61,1509.2902 L 3939.61,1509.29 z "
   class="fil0 str4" />
  </g><g
   id="g1703"
   transform="translate(-1932.477,-481.4318)"
   style="stroke:none"
   inkscape:export-filename="/home/piotr/Projects/Psycho/Psycho/Resources/psycho-delete-smallpng"
   inkscape:export-xdpi="4.1241837"
   inkscape:export-ydpi="4.1241837">
   <polygon
   style="fill:none;fill-rule:nonzero;stroke:none;stroke-width:0.89988601"
   id="polygon1705"
   points="2893.64,1739.67 3242.8,1739.67 3242.8,1390.51 2893.64,1390.51 2893.64,1739.67 "
   class="fil0 str0" />
  </g><g
   id="g1739"
   transform="translate(-2795.188,415.2928)"
   style="stroke:none"
   inkscape:export-filename="/home/piotr/Projects/Psycho/Psycho/Resources/psycho-relation-small.png"
   inkscape:export-xdpi="4.1135802"
   inkscape:export-ydpi="4.1135802">
   <polygon
   style="fill:none;fill-rule:nonzero;stroke:none;stroke-width:0.89988601"
   id="polygon1741"
   points="2893.64,1303.22 3242.8,1303.22 3242.8,954.065 2893.64,954.065 2893.64,1303.22 "
   class="fil0 str0" />
  </g><g
   id="g1747"
   transform="translate(-2795.188,415.2928)"
   style="fill:#2e3436;stroke:none"
   inkscape:export-filename="/home/piotr/Projects/Psycho/Psycho/Resources/psycho-relation-small.png"
   inkscape:export-xdpi="4.1135802"
   inkscape:export-ydpi="4.1135802">
   <path
   style="fill:#2e3436;fill-rule:nonzero;stroke:none;stroke-width:0.89988601"
   id="path1749"
   d="M 3021.43,1135.54 L 3031.3287,1097.7448 L 3036.4281,1077.3474 C 3043.9271,1082.7467 3051.7262,1085.1464 3061.025,1085.1464 L 3061.025,1085.1464 L 3133.6158,1085.1464 C 3157.9127,1085.1464 3177.4102,1065.3489 3177.4102,1041.352 L 3177.4102,1041.352 L 3177.4102,997.55761 C 3177.4102,973.56061 3157.9127,954.06311 3133.6158,954.06311 L 3133.6158,954.06311 L 3061.025,954.06311 C 3040.0277,954.06311 3022.3299,968.46131 3018.1304,989.15861 L 3018.1304,989.15861 L 3007.3318,993.05811 L 2989.634,1018.2549 L 2981.535,1046.4513 L 2977.6355,1075.2476 L 2975.2358,1102.2442 L 2972.5362,1125.3413 L 3021.43,1135.54 L 3021.43,1135.54 z "
   class="fil0 str4" />
  </g><g
   id="g1755"
   transform="translate(-2795.188,415.2928)"
   style="fill:#2e3436;stroke:none"
   inkscape:export-filename="/home/piotr/Projects/Psycho/Psycho/Resources/psycho-relation-small.png"
   inkscape:export-xdpi="4.1135802"
   inkscape:export-ydpi="4.1135802">
   <path
   style="fill:#2e3436;fill-rule:nonzero;stroke:none;stroke-width:0.89988601"
   id="path1757"
   d="M 2987.23,1176.64 L 3000.7283,1209.6358 L 3008.8273,1229.4333 L 3019.326,1248.9308 L 3035.5239,1266.9285 L 3040.0233,1268.4283 C 3044.2228,1288.8257 3061.9205,1303.2239 3082.9179,1303.2239 L 3082.9179,1303.2239 L 3155.5087,1303.2239 C 3179.5057,1303.2239 3199.3031,1283.7264 3199.3031,1259.7294 L 3199.3031,1259.7294 L 3199.3031,1215.935 C 3199.3031,1191.938 3179.5056,1172.4405 3155.5087,1172.4405 L 3155.5087,1172.4405 L 3082.9179,1172.4405 C 3068.5197,1172.4405 3056.5213,1178.4397 3048.1223,1189.5383 L 3048.1223,1189.5383 L 3046.9225,1188.3385 L 3040.0233,1176.0401 L 3029.2247,1157.1425 L 2987.23,1176.64 L 2987.23,1176.64 z "
   class="fil0 str4" />
  </g><g
   id="g1763"
   transform="translate(-2795.188,415.2928)"
   style="stroke:none"
   inkscape:export-filename="/home/piotr/Projects/Psycho/Psycho/Resources/psycho-relation-small.png"
   inkscape:export-xdpi="4.1135802"
   inkscape:export-ydpi="4.1135802">
   <path
   style="fill:#2e3436;fill-rule:nonzero;stroke:none;stroke-width:0.89988601"
   id="path1765"
   d="M 2893.64,1150.54 C 2893.64,1161.6386 2896.3397,1170.9374 2902.3389,1180.2362 L 2902.3389,1180.2362 C 2908.6381,1190.4349 2915.8372,1197.934 2925.7359,1204.5331 L 2925.7359,1204.5331 C 2935.3347,1211.1323 2944.6335,1215.3317 2955.7321,1218.3313 L 2955.7321,1218.3313 C 2968.0305,1221.6309 2979.1291,1223.1307 2992.0275,1223.1307 L 2992.0275,1223.1307 C 3004.9259,1223.1307 3015.7245,1221.6309 3028.0229,1218.3313 L 3028.0229,1218.3313 C 3039.4215,1215.3317 3048.4203,1211.1322 3058.0191,1204.5331 L 3058.0191,1204.5331 C 3067.9178,1197.9339 3075.1169,1190.4349 3081.7161,1180.2362 L 3081.7161,1180.2362 C 3087.4154,1170.9374 3090.115,1161.6386 3090.115,1150.54 L 3090.115,1150.54 C 3090.115,1139.4414 3087.4154,1130.1426 3081.7161,1120.5438 L 3081.7161,1120.5438 C 3075.1169,1110.3451 3067.9179,1102.846 3058.0191,1096.2469 L 3058.0191,1096.2469 C 3048.4203,1089.9477 3039.4215,1085.7482 3028.0229,1082.7486 L 3028.0229,1082.7486 C 3015.7245,1079.1491 3004.9258,1077.6492 2992.0275,1077.6492 L 2992.0275,1077.6492 C 2979.1291,1077.6492 2968.0305,1079.1491 2955.7321,1082.7486 L 2955.7321,1082.7486 C 2944.6335,1085.7482 2935.3347,1089.9477 2925.7359,1096.2469 L 2925.7359,1096.2469 C 2915.8372,1102.8461 2908.6381,1110.3451 2902.3389,1120.5438 L 2902.3389,1120.5438 C 2896.3397,1130.1426 2893.64,1139.4414 2893.64,1150.54 z "
   class="fil0 str4" />
  </g><g
   id="g1751"
   transform="translate(-2795.188,415.2928)"
   style="fill:#729fcf;stroke:none"
   inkscape:export-filename="/home/piotr/Projects/Psycho/Psycho/Resources/psycho-relation-small.png"
   inkscape:export-xdpi="4.1135802"
   inkscape:export-ydpi="4.1135802">
   <path
   style="fill:#729fcf;fill-rule:nonzero;stroke:none;stroke-width:0.89988601"
   id="path1753"
   d="M 3015.43,1187.74 L 3021.1293,1201.5382 L 3028.6283,1220.1358 L 3037.3272,1236.3337 L 3047.8259,1248.0322 L 3061.0242,1252.2317 L 3061.0242,1259.7307 C 3061.0242,1271.7292 3070.623,1281.328 3082.9214,1281.328 L 3082.9214,1281.328 L 3155.5122,1281.328 C 3167.5107,1281.328 3177.4094,1271.7292 3177.4094,1259.7307 L 3177.4094,1259.7307 L 3177.4094,1215.9363 C 3177.4094,1203.9378 3167.5107,1194.0391 3155.5122,1194.0391 L 3155.5122,1194.0391 L 3082.9214,1194.0391 C 3070.623,1194.0391 3061.0242,1203.9379 3061.0242,1215.9363 L 3061.0242,1215.9363 L 3061.0242,1223.1354 L 3047.8259,1220.1358 L 3037.3272,1211.7369 L 3028.6283,1200.3383 L 3021.1293,1186.84 L 3020.2294,1185.3401 L 3015.43,1187.7398 L 3015.43,1187.74 z "
   class="fil0 str5" />
  </g><g
   id="g1743"
   transform="translate(-2795.188,415.2928)"
   style="fill:#729fcf;stroke:none"
   inkscape:export-filename="/home/piotr/Projects/Psycho/Psycho/Resources/psycho-relation-small.png"
   inkscape:export-xdpi="4.1135802"
   inkscape:export-ydpi="4.1135802">
   <path
   style="fill:#729fcf;fill-rule:nonzero;stroke:none;stroke-width:0.89988601"
   id="path1745"
   d="M 3005.53,1110.05 L 3010.0294,1092.3522 L 3015.7287,1071.0549 L 3022.0279,1052.1573 L 3029.527,1038.959 L 3039.1257,1034.1596 L 3039.1257,1041.3587 C 3039.1257,1053.3572 3049.0245,1063.2559 3061.0229,1063.2559 L 3061.0229,1063.2559 L 3133.6137,1063.2559 C 3145.9121,1063.2559 3155.5109,1053.3572 3155.5109,1041.3587 L 3155.5109,1041.3587 L 3155.5109,997.5643 C 3155.5109,985.5658 3145.9122,975.967 3133.6137,975.967 L 3133.6137,975.967 L 3061.0229,975.967 C 3049.0244,975.967 3039.1257,985.56578 3039.1257,997.5643 L 3039.1257,997.5643 L 3039.1257,1005.0634 L 3021.128,1011.3626 L 3009.7294,1027.8605 L 3002.8303,1050.9576 L 2999.2308,1077.6542 L 2996.8311,1104.3508 L 2996.5311,1107.9503 L 3005.53,1110.05 L 3005.53,1110.05 z "
   class="fil0 str5" />
  </g><g
   id="g1759"
   transform="translate(-2795.188,415.2928)"
   style="fill:#3465a4;stroke:none"
   inkscape:export-filename="/home/piotr/Projects/Psycho/Psycho/Resources/psycho-relation-small.png"
   inkscape:export-xdpi="4.1135802"
   inkscape:export-ydpi="4.1135802">
   <path
   style="fill:#3465a4;fill-rule:nonzero;stroke:none;stroke-width:0.89988601"
   id="path1761"
   d="M 2915.54,1150.54 C 2915.54,1157.1392 2917.3398,1163.1384 2920.6393,1168.8377 L 2920.6393,1168.8377 C 2925.4387,1176.3367 2930.5381,1181.7361 2938.0372,1186.5355 L 2938.0372,1186.5355 C 2945.5362,1191.6348 2952.7353,1194.9344 2961.4342,1197.3341 L 2961.4342,1197.3341 C 2971.9329,1200.0338 2981.2317,1201.5336 2992.0303,1201.5336 L 2992.0303,1201.5336 C 3002.8289,1201.5336 3011.8278,1200.0338 3022.3265,1197.3341 L 3022.3265,1197.3341 C 3031.0254,1194.9344 3038.2245,1191.6348 3046.0235,1186.5355 L 3046.0235,1186.5355 C 3053.2225,1181.7361 3058.3219,1176.3368 3063.1213,1168.8377 L 3063.1213,1168.8377 C 3066.7208,1163.1384 3068.2206,1157.1392 3068.2206,1150.54 L 3068.2206,1150.54 C 3068.2206,1143.6409 3066.7208,1137.9416 3063.1213,1132.2423 L 3063.1213,1132.2423 C 3058.3219,1124.7432 3053.2225,1119.3439 3046.0235,1114.5445 L 3046.0235,1114.5445 C 3038.2244,1109.4452 3031.0254,1106.1456 3022.3265,1103.7459 L 3022.3265,1103.7459 C 3011.8278,1100.7463 3002.829,1099.5464 2992.0303,1099.5464 L 2992.0303,1099.5464 C 2981.2317,1099.5464 2971.9329,1100.7463 2961.4342,1103.7459 L 2961.4342,1103.7459 C 2952.7353,1106.1456 2945.5362,1109.4452 2938.0372,1114.5445 L 2938.0372,1114.5445 C 2930.5381,1119.3439 2925.4388,1124.7432 2920.6394,1132.2423 L 2920.6394,1132.2423 C 2917.3398,1137.9416 2915.54,1143.6409 2915.54,1150.54 L 2915.54,1150.54 z "
   class="fil0 str1" />
  </g><g
   id="g1767"
   transform="translate(-2795.188,415.2928)"
   style="fill:#ef2929;stroke:none"
   inkscape:export-filename="/home/piotr/Projects/Psycho/Psycho/Resources/psycho-relation-small.png"
   inkscape:export-xdpi="4.1135802"
   inkscape:export-ydpi="4.1135802">
   <polygon
   style="fill:#ef2929;fill-rule:nonzero;stroke:none;stroke-width:0.89988601"
   id="polygon1769"
   points="3184.91,1167.04 3187.91,1153.24 3188.51,1136.44 3184.91,1121.74 3176.21,1107.05 3161.51,1090.85 3140.21,1071.35 3111.42,1046.75 3097.32,1063.25 3122.51,1084.85 3141.11,1101.95 3154.01,1116.04 3161.81,1128.64 3165.41,1141.24 3164.81,1155.34 3163.61,1161.04 3143.51,1155.64 3153.11,1243.23 3206.8,1173.04 3184.91,1167.04 "
   class="fil0 str3" />
  </g><g
   id="g1771"
   transform="translate(-2332.911,-461.3325)"
   style="stroke:none"
   inkscape:export-filename="/home/piotr/Projects/Psycho/Psycho/Resources/psycho-callout-small.png"
   inkscape:export-xdpi="4.1242309"
   inkscape:export-ydpi="4.1242309">
   <polygon
   style="fill:none;fill-rule:nonzero;stroke:none;stroke-width:0.89988601"
   id="polygon1773"
   points="3330.09,2176.11 3679.24,2176.11 3679.24,1826.95 3330.09,1826.95 3330.09,2176.11 "
   class="fil0 str0" />
  </g><g
   id="g1775"
   transform="translate(-2332.911,-461.3325)"
   style="fill:#3465a4;stroke:none"
   inkscape:export-filename="/home/piotr/Projects/Psycho/Psycho/Resources/psycho-callout-small.png"
   inkscape:export-xdpi="4.1242309"
   inkscape:export-ydpi="4.1242309">
   <path
   style="fill:#3465a4;fill-rule:nonzero;stroke:none;stroke-width:0.89988601"
   id="path1777"
   d="M 3386.48,2112.52 L 3526.562,2025.2311 L 3613.8509,2025.2311 C 3637.8479,2025.2311 3657.3454,2005.7336 3657.3454,1981.4367 L 3657.3454,1981.4367 L 3657.3454,1892.348 C 3657.3454,1868.351 3637.8479,1848.8535 3613.8509,1848.8535 L 3613.8509,1848.8535 L 3429.9739,1848.8535 C 3405.9769,1848.8535 3386.4794,1868.351 3386.4794,1892.348 L 3386.4794,1892.348 L 3386.4794,1981.4367 C 3386.4794,2005.7336 3405.9769,2025.2311 3429.9739,2025.2311 L 3429.9739,2025.2311 L 3386.4794,2112.52 L 3386.48,2112.52 z "
   class="fil0 str3" />
  </g>
<g
   id="g1671"
   transform="translate(-3214.174,-34.6156)"
   style="fill:#3465a4;stroke:none"
   inkscape:export-filename="/home/piotr/Projects/Psycho/Psycho/Resources/psycho-boundary-small.png"
   inkscape:export-xdpi="4.1241841"
   inkscape:export-ydpi="4.1241841">
   <path
   style="fill:#3465a4;fill-rule:nonzero;stroke:none;stroke-width:0.89988601"
   id="path1673"
   d="M 3849.92,1506.6 L 3855.3193,1506.0001 L 3864.0182,1505.4002 L 3874.2169,1504.8002 L 3887.4152,1504.5003 L 3887.4152,1509.2997 C 3887.4152,1517.0987 3893.7144,1523.0979 3901.5134,1523.0979 L 3901.5134,1523.0979 L 3948.0075,1523.0979 C 3955.5066,1523.0979 3961.8057,1517.0986 3961.8057,1509.2997 L 3961.8057,1509.2997 L 3961.8057,1481.4032 C 3961.8057,1473.6041 3955.5065,1467.305 3948.0075,1467.305 L 3948.0075,1467.305 L 3901.5134,1467.305 C 3893.7144,1467.305 3887.4152,1473.6042 3887.4152,1481.4032 L 3887.4152,1481.4032 L 3887.4152,1485.9026 L 3874.2169,1487.1024 L 3864.0182,1489.5021 L 3855.3193,1493.4016 L 3847.8203,1497.6011 L 3846.6204,1498.201 L 3849.92,1506.6 L 3849.92,1506.6 z "
   class="fil0 str1" />
  </g><g
   id="g1679"
   transform="translate(-3214.174,-34.6156)"
   style="fill:#729fcf;stroke:none"
   inkscape:export-filename="/home/piotr/Projects/Psycho/Psycho/Resources/psycho-boundary-small.png"
   inkscape:export-xdpi="4.1241841"
   inkscape:export-ydpi="4.1241841">
   <path
   style="fill:#729fcf;fill-rule:nonzero;stroke:none;stroke-width:0.89988601"
   id="path1681"
   d="M 3925.81,1523.09 L 3926.4099,1538.3881 L 3927.9097,1570.784 L 3930.0095,1593.8811 L 3933.0091,1609.4791 L 3937.5085,1618.7779 L 3944.1077,1623.5773 L 3952.8066,1625.3771 L 3964.2052,1625.677 L 3964.2052,1620.8777 C 3964.2052,1613.3786 3970.5044,1607.0795 3978.3034,1607.0795 L 3978.3034,1607.0795 L 4024.7975,1607.0795 C 4032.5965,1607.0795 4038.5957,1613.3787 4038.5957,1620.8777 L 4038.5957,1620.8777 L 4038.5957,1648.7742 C 4038.5957,1656.5732 4032.5964,1662.8724 4024.7975,1662.8724 L 4024.7975,1662.8724 L 3978.3034,1662.8724 C 3970.5044,1662.8724 3964.2052,1656.5732 3964.2052,1648.7742 L 3964.2052,1648.7742 L 3964.2052,1644.2747 L 3949.807,1643.9748 L 3938.7084,1641.875 L 3931.2093,1636.4757 L 3926.11,1625.6771 L 3923.4103,1607.9793 L 3922.8104,1581.2827 L 3923.1104,1544.3874 L 3923.7103,1523.0901 L 3925.81,1523.0901 L 3925.81,1523.09 z "
   class="fil0 str5" />
  </g><g
   id="g1687"
   transform="translate(-3214.174,-34.6156)"
   style="fill:#729fcf;stroke:none"
   inkscape:export-filename="/home/piotr/Projects/Psycho/Psycho/Resources/psycho-boundary-small.png"
   inkscape:export-xdpi="4.1241841"
   inkscape:export-ydpi="4.1241841">
   <path
   style="fill:#729fcf;fill-rule:nonzero;stroke:none;stroke-width:0.89988601"
   id="path1689"
   d="M 3927.01,1523.09 L 3927.9099,1530.2891 L 3930.0096,1541.0877 L 3933.0092,1548.2868 L 3937.5087,1552.4863 L 3944.1078,1554.886 L 3952.8067,1555.7858 L 3964.2053,1555.7858 L 3964.2053,1551.2864 C 3964.2053,1543.4874 3970.5045,1537.1882 3978.3035,1537.1882 L 3978.3035,1537.1882 L 4024.7976,1537.1882 C 4032.5966,1537.1882 4038.5958,1543.4874 4038.5958,1551.2864 L 4038.5958,1551.2864 L 4038.5958,1579.1829 C 4038.5958,1586.682 4032.5966,1592.9811 4024.7976,1592.9811 L 4024.7976,1592.9811 L 3978.3035,1592.9811 C 3970.5045,1592.9811 3964.2053,1586.6819 3964.2053,1579.1829 L 3964.2053,1579.1829 L 3964.2053,1574.3835 L 3949.8071,1574.3835 L 3938.7085,1573.1837 L 3931.2095,1570.184 L 3926.1101,1564.4848 L 3923.4105,1555.1859 L 3922.8105,1541.0877 L 3923.1105,1523.09 L 3927.01,1523.09 L 3927.01,1523.09 z "
   class="fil0 str5" />
  </g><g
   id="g1643"
   transform="translate(-2789.003,-476.7936)"
   style="fill:#3465a4;stroke:none"
   inkscape:export-filename="/home/piotr/Projects/Psycho/Psycho/Resources/psycho-subtopic-small.png"
   inkscape:export-xdpi="4.1241212"
   inkscape:export-ydpi="4.1241212">
   <path
   style="fill:#3465a4;fill-rule:nonzero;stroke:none;stroke-width:0.89988601"
   id="path1645"
   d="M 3362.48,1473.9 L 3370.8789,1473.0001 L 3384.3772,1471.8003 L 3400.2752,1470.9004 L 3420.9726,1470.6004 L 3420.9726,1477.7995 C 3420.9726,1489.798 3430.5714,1499.6967 3442.8698,1499.6967 L 3442.8698,1499.6967 L 3515.4606,1499.6967 C 3527.4591,1499.6967 3537.3578,1489.798 3537.3578,1477.7995 L 3537.3578,1477.7995 L 3537.3578,1434.305 C 3537.3578,1422.0066 3527.4591,1412.4078 3515.4606,1412.4078 L 3515.4606,1412.4078 L 3442.8698,1412.4078 C 3430.5714,1412.4078 3420.9726,1422.0066 3420.9726,1434.305 L 3420.9726,1434.305 L 3420.9726,1441.5041 L 3400.2752,1443.0039 L 3384.3772,1447.2034 L 3370.8789,1452.9027 L 3359.1804,1459.5018 L 3357.3807,1460.7017 L 3362.48,1473.9 L 3362.48,1473.9 z "
   class="fil0 str1" />
  </g><g
   id="g1655"
   transform="translate(-2789.003,-476.7936)"
   style="fill:#729fcf;stroke:none"
   inkscape:export-filename="/home/piotr/Projects/Psycho/Psycho/Resources/psycho-subtopic-small.png"
   inkscape:export-xdpi="4.1241212"
   inkscape:export-ydpi="4.1241212">
   <path
   style="fill:#729fcf;fill-rule:nonzero;stroke:none;stroke-width:0.89988601"
   id="path1657"
   d="M 3483.07,1499.7 L 3484.2699,1510.7986 L 3487.5694,1527.5965 L 3492.3688,1538.6951 L 3499.2679,1545.5942 L 3509.4666,1549.1938 L 3522.9649,1550.3936 L 3540.9626,1550.6936 L 3540.9626,1543.1945 C 3540.9626,1531.196 3550.8614,1521.5972 3562.8598,1521.5972 L 3562.8598,1521.5972 L 3635.4506,1521.5972 C 3647.4491,1521.5972 3657.3478,1531.196 3657.3478,1543.1945 L 3657.3478,1543.1945 L 3657.3478,1586.9889 C 3657.3478,1598.9874 3647.4491,1608.8861 3635.4506,1608.8861 L 3635.4506,1608.8861 L 3562.8598,1608.8861 C 3550.8613,1608.8861 3540.9626,1598.9874 3540.9626,1586.9889 L 3540.9626,1586.9889 L 3540.9626,1579.7898 L 3518.1655,1579.4899 L 3501.0677,1577.6901 L 3489.0692,1573.1907 L 3481.2702,1564.1918 L 3477.3707,1549.4937 L 3475.8709,1527.5965 L 3476.7708,1499.7 L 3483.07,1499.7 L 3483.07,1499.7 z "
   class="fil0 str5" />
  </g><g
   id="g1651"
   transform="translate(-2789.003,-476.7936)"
   style="fill:#cc0000;stroke:none"
   inkscape:export-filename="/home/piotr/Projects/Psycho/Psycho/Resources/psycho-subtopic-small.png"
   inkscape:export-xdpi="4.1241212"
   inkscape:export-ydpi="4.1241212">
   <path
   style="fill:#cc0000;fill-rule:nonzero;stroke:none;stroke-width:0.89988601"
   id="path1653"
   d="M 3480.67,1499.7 L 3481.5699,1523.097 L 3484.2695,1573.7906 L 3487.5691,1610.086 L 3492.3685,1634.083 L 3499.2676,1649.0811 L 3509.4663,1656.5802 L 3522.9646,1659.2798 L 3540.9623,1659.5798 L 3540.9623,1652.3807 C 3540.9623,1640.3822 3550.8611,1630.4835 3562.8595,1630.4835 L 3562.8595,1630.4835 L 3635.4503,1630.4835 C 3647.4488,1630.4835 3657.3475,1640.3822 3657.3475,1652.3807 L 3657.3475,1652.3807 L 3657.3475,1696.1751 C 3657.3475,1708.1736 3647.4488,1717.7724 3635.4503,1717.7724 L 3635.4503,1717.7724 L 3562.8595,1717.7724 C 3550.861,1717.7724 3540.9623,1708.1736 3540.9623,1696.1751 L 3540.9623,1696.1751 L 3540.9623,1688.676 L 3518.1652,1688.3761 L 3501.0674,1685.0765 L 3489.0689,1676.3776 L 3481.2699,1659.5797 L 3477.3704,1631.9832 L 3475.8706,1590.5885 L 3476.7705,1532.6959 L 3477.9704,1499.7001 L 3480.67,1499.7001 L 3480.67,1499.7 z "
   class="fil0 str5" />
  </g><g
   id="g1707"
   transform="translate(-1932.477,-481.4318)"
   style="fill:#3465a4;stroke:none"
   inkscape:export-filename="/home/piotr/Projects/Psycho/Psycho/Resources/psycho-delete-smallpng"
   inkscape:export-xdpi="4.1241837"
   inkscape:export-ydpi="4.1241837">
   <path
   style="fill:#3465a4;fill-rule:nonzero;stroke:none;stroke-width:0.89988601"
   id="path1709"
   d="M 2926.04,1473.9 L 2934.7389,1473.0001 L 2947.9372,1471.8003 L 2964.1351,1470.9004 L 2984.5325,1470.6004 L 2984.5325,1477.7995 C 2984.5325,1489.798 2994.4312,1499.6967 3006.4297,1499.6967 L 3006.4297,1499.6967 L 3079.0205,1499.6967 C 3091.3189,1499.6967 3100.9177,1489.798 3100.9177,1477.7995 L 3100.9177,1477.7995 L 3100.9177,1434.305 C 3100.9177,1422.0066 3091.3189,1412.4078 3079.0205,1412.4078 L 3079.0205,1412.4078 L 3006.4297,1412.4078 C 2994.4312,1412.4078 2984.5325,1422.0066 2984.5325,1434.305 L 2984.5325,1434.305 L 2984.5325,1441.5041 L 2964.1351,1443.0039 L 2947.9372,1447.2034 L 2934.7389,1452.9027 L 2922.7404,1459.5018 L 2920.9406,1460.7017 L 2926.04,1473.9 L 2926.04,1473.9 z "
   class="fil0 str1" />
  </g><g
   id="g1715"
   transform="translate(-1932.477,-481.4318)"
   style="fill:#729fcf;stroke:none"
   inkscape:export-filename="/home/piotr/Projects/Psycho/Psycho/Resources/psycho-delete-smallpng"
   inkscape:export-xdpi="4.1241837"
   inkscape:export-ydpi="4.1241837">
   <path
   style="fill:#729fcf;fill-rule:nonzero;stroke:none;stroke-width:0.89988601"
   id="path1717"
   d="M 3044.52,1499.7 L 3045.1199,1523.097 L 3047.8196,1573.7906 L 3051.1192,1610.086 L 3055.9186,1634.083 L 3063.1176,1649.0811 L 3073.0164,1656.5802 L 3086.5147,1659.2798 L 3104.5124,1659.5798 L 3104.5124,1652.3807 C 3104.5124,1640.3822 3114.4111,1630.4835 3126.4096,1630.4835 L 3126.4096,1630.4835 L 3199.3003,1630.4835 C 3211.2988,1630.4835 3220.8976,1640.3822 3220.8976,1652.3807 L 3220.8976,1652.3807 L 3220.8976,1696.1751 C 3220.8976,1708.1736 3211.2988,1717.7724 3199.3003,1717.7724 L 3199.3003,1717.7724 L 3126.4096,1717.7724 C 3114.4111,1717.7724 3104.5124,1708.1736 3104.5124,1696.1751 L 3104.5124,1696.1751 L 3104.5124,1688.676 L 3081.7153,1688.3761 L 3064.9174,1685.0765 L 3052.619,1676.3776 L 3045.1199,1659.5797 L 3040.9205,1631.9832 L 3039.7206,1590.5885 L 3040.6205,1532.6959 L 3041.5204,1499.7001 L 3044.52,1499.7001 L 3044.52,1499.7 z "
   class="fil0 str1" />
  </g><g
   id="g1723"
   transform="translate(-1932.477,-481.4318)"
   style="fill:#729fcf;stroke:none"
   inkscape:export-filename="/home/piotr/Projects/Psycho/Psycho/Resources/psycho-delete-smallpng"
   inkscape:export-xdpi="4.1241837"
   inkscape:export-ydpi="4.1241837">
   <path
   style="fill:#729fcf;fill-rule:nonzero;stroke:none;stroke-width:0.89988601"
   id="path1725"
   d="M 3046.62,1499.7 L 3047.8198,1510.7986 L 3051.1194,1527.5965 L 3055.9188,1538.6951 L 3063.1179,1545.5942 L 3073.0167,1549.1938 L 3086.515,1550.3936 L 3104.5127,1550.6936 L 3104.5127,1543.1945 C 3104.5127,1531.196 3114.4114,1521.5972 3126.4099,1521.5972 L 3126.4099,1521.5972 L 3199.3005,1521.5972 C 3211.2991,1521.5972 3220.8978,1531.196 3220.8978,1543.1945 L 3220.8978,1543.1945 L 3220.8978,1586.9889 C 3220.8978,1598.9874 3211.2991,1608.8861 3199.3005,1608.8861 L 3199.3005,1608.8861 L 3126.4099,1608.8861 C 3114.4113,1608.8861 3104.5127,1598.9874 3104.5127,1586.9889 L 3104.5127,1586.9889 L 3104.5127,1579.7898 L 3081.7155,1579.4899 L 3064.9176,1577.6901 L 3052.6192,1573.1907 L 3045.1202,1564.1918 L 3040.9207,1549.4937 L 3039.7209,1527.5965 L 3040.3208,1499.7 L 3046.62,1499.7 L 3046.62,1499.7 z "
   class="fil0 str1" />
  </g><g
   id="g1731"
   transform="translate(-1932.477,-481.4318)"
   style="fill:#cc0000;stroke:none"
   inkscape:export-filename="/home/piotr/Projects/Psycho/Psycho/Resources/psycho-delete-smallpng"
   inkscape:export-xdpi="4.1241837"
   inkscape:export-ydpi="4.1241837">
   <polygon
   style="fill:#cc0000;fill-rule:nonzero;stroke:none;stroke-width:0.89988601"
   id="polygon1733"
   points="3162.71,1595.98 3193.6,1626.88 3224.5,1595.98 3193.6,1565.09 3224.5,1534.19 3193.6,1503.3 3162.71,1534.19 3131.81,1503.3 3101.22,1534.19 3131.81,1565.09 3101.22,1595.98 3131.81,1626.88 3162.71,1595.98 "
   class="fil0 str3" />
  </g><g
   id="g1783"
   transform="translate(-2332.911,-461.3325)"
   style="fill:#eeeeec;stroke:none"
   inkscape:export-filename="/home/piotr/Projects/Psycho/Psycho/Resources/psycho-callout-small.png"
   inkscape:export-xdpi="4.1242309"
   inkscape:export-ydpi="4.1242309">
   <path
   style="fill:#eeeeec;fill-rule:nonzero;stroke:none;stroke-width:0.89988601"
   id="path1785"
   d="M 3440.47,2053.13 L 3520.2599,2003.3363 L 3613.848,2003.3363 C 3625.8465,2003.3363 3635.4453,1993.4376 3635.4453,1981.4391 L 3635.4453,1981.4391 L 3635.4453,1892.3504 C 3635.4453,1880.3519 3625.8465,1870.7531 3613.848,1870.7531 L 3613.848,1870.7531 L 3429.971,1870.7531 C 3417.9725,1870.7531 3408.0738,1880.3519 3408.0738,1892.3504 L 3408.0738,1892.3504 L 3408.0738,1981.4391 C 3408.0738,1993.4376 3417.9725,2003.3363 3429.971,2003.3363 L 3429.971,2003.3363 C 3441.9695,2003.3363 3451.8682,2013.235 3451.8682,2025.2335 C 3451.8682,2028.833 3450.9683,2031.8327 3449.4685,2034.8323 L 3449.4685,2034.8323 L 3440.4696,2053.13 L 3440.47,2053.13 z "
   class="fil0 str3" />
  </g></svg>